<svg version="1.1" id="Layer_1" xmlns="http://www.w3.org/2000/svg" xmlns:xlink="http://www.w3.org/1999/xlink" x="0px" y="0px"
	 width="100%" viewBox="0 0 145 130" enable-background="new 0 0 145 130" xml:space="preserve">
<path fill="#FEFEFE" opacity="1.000000" stroke="none" 
	d="
M92.000000,131.000000 
	C61.333332,131.000000 31.166666,131.000000 1.000000,131.000000 
	C1.000000,87.666664 1.000000,44.333332 1.000000,1.000000 
	C49.333332,1.000000 97.666664,1.000000 146.000000,1.000000 
	C146.000000,44.333332 146.000000,87.666664 146.000000,131.000000 
	C128.166672,131.000000 110.333336,131.000000 92.000000,131.000000 
M63.499886,118.704384 
	C76.652771,118.703629 89.806656,118.803238 102.958267,118.673187 
	C115.488052,118.549286 123.231789,110.818298 123.277351,98.410591 
	C123.356834,76.766876 123.357079,55.122440 123.276978,33.478725 
	C123.230812,21.005171 115.441528,13.218102 103.031898,13.183054 
	C80.722099,13.120045 58.411896,13.125248 36.102047,13.179169 
	C23.244663,13.210244 15.348195,21.176861 15.313105,34.154137 
	C15.255931,55.298512 15.258251,76.443260 15.311654,97.587654 
	C15.344904,110.752548 23.243851,118.583374 36.527176,118.690399 
	C45.184219,118.760155 53.842278,118.704071 63.499886,118.704384 
z"/>
<path fill="#360302" opacity="1.000000" stroke="none" 
	d="
M62.999886,118.704376 
	C53.842278,118.704071 45.184219,118.760155 36.527176,118.690399 
	C23.243851,118.583374 15.344904,110.752548 15.311654,97.587654 
	C15.258251,76.443260 15.255931,55.298512 15.313105,34.154137 
	C15.348195,21.176861 23.244663,13.210244 36.102047,13.179169 
	C58.411896,13.125248 80.722099,13.120045 103.031898,13.183054 
	C115.441528,13.218102 123.230812,21.005171 123.276978,33.478725 
	C123.357079,55.122440 123.356834,76.766876 123.277351,98.410591 
	C123.231789,110.818298 115.488052,118.549286 102.958267,118.673187 
	C89.806656,118.803238 76.652771,118.703629 62.999886,118.704376 
M70.692444,85.120247 
	C73.804466,89.623436 77.875961,86.395523 82.069473,87.367325 
	C77.437317,74.210243 73.135109,62.024109 68.857323,49.829407 
	C65.277214,39.623577 65.289650,39.614426 54.461823,40.074390 
	C54.012611,40.093472 53.573769,40.356537 53.601410,40.347229 
	C48.223370,56.013760 42.968464,71.321594 37.365307,87.643906 
	C41.655933,86.110504 46.167290,90.284149 48.329479,84.224411 
	C51.221729,76.118599 51.334469,76.158821 59.814796,76.158966 
	C60.978344,76.158981 62.160942,76.294197 63.301792,76.133301 
	C66.478485,75.685310 68.317581,76.917168 68.967697,80.101326 
	C69.264244,81.553764 69.880173,82.940979 70.692444,85.120247 
M96.997322,58.576786 
	C96.997322,56.462811 96.997322,54.348839 96.997322,52.175430 
	C93.370491,52.175430 90.322540,52.175430 86.959167,52.175430 
	C86.959167,58.340237 86.959160,64.148819 86.959160,69.957405 
	C86.959160,75.733406 86.959167,81.509399 86.959167,87.392944 
	C90.616325,87.392944 93.663681,87.392944 96.997322,87.392944 
	C96.997322,77.864777 96.997322,68.713623 96.997322,58.576786 
M91.641495,36.771339 
	C87.803108,37.207447 85.643501,39.687798 86.614380,43.132175 
	C87.160446,45.069477 90.097565,47.540825 91.972290,47.553329 
	C93.819786,47.565655 96.738487,45.089420 97.310463,43.151203 
	C98.301186,39.793995 96.528145,37.046032 91.641495,36.771339 
z"/>
<path fill="#FA9600" opacity="1.000000" stroke="none" 
	d="
M70.521843,84.739014 
	C69.880173,82.940979 69.264244,81.553764 68.967697,80.101326 
	C68.317581,76.917168 66.478485,75.685310 63.301792,76.133301 
	C62.160942,76.294197 60.978344,76.158981 59.814796,76.158966 
	C51.334469,76.158821 51.221729,76.118599 48.329479,84.224411 
	C46.167290,90.284149 41.655933,86.110504 37.365307,87.643906 
	C42.968464,71.321594 48.223370,56.013760 53.601410,40.347229 
	C53.573769,40.356537 54.012611,40.093472 54.461823,40.074390 
	C65.289650,39.614426 65.277214,39.623577 68.857323,49.829407 
	C73.135109,62.024109 77.437317,74.210243 82.069473,87.367325 
	C77.875961,86.395523 73.804466,89.623436 70.521843,84.739014 
M55.894844,59.431229 
	C55.202473,61.781830 54.510105,64.132431 53.756168,66.692062 
	C57.533020,66.692062 60.854568,66.692062 64.705391,66.692062 
	C62.917133,60.925621 61.285229,55.663372 59.228767,49.032085 
	C57.892498,53.110203 56.985085,55.879513 55.894844,59.431229 
z"/>
<path fill="#FD9900" opacity="1.000000" stroke="none" 
	d="
M96.997322,59.069630 
	C96.997322,68.713623 96.997322,77.864777 96.997322,87.392944 
	C93.663681,87.392944 90.616325,87.392944 86.959167,87.392944 
	C86.959167,81.509399 86.959160,75.733406 86.959160,69.957405 
	C86.959160,64.148819 86.959167,58.340237 86.959167,52.175430 
	C90.322540,52.175430 93.370491,52.175430 96.997322,52.175430 
	C96.997322,54.348839 96.997322,56.462811 96.997322,59.069630 
z"/>
<path fill="#F69300" opacity="1.000000" stroke="none" 
	d="
M92.049286,36.769859 
	C96.528145,37.046032 98.301186,39.793995 97.310463,43.151203 
	C96.738487,45.089420 93.819786,47.565655 91.972290,47.553329 
	C90.097565,47.540825 87.160446,45.069477 86.614380,43.132175 
	C85.643501,39.687798 87.803108,37.207447 92.049286,36.769859 
z"/>
<path fill="#3B0600" opacity="1.000000" stroke="none" 
	d="
M55.986259,59.040024 
	C56.985085,55.879513 57.892498,53.110203 59.228767,49.032085 
	C61.285229,55.663372 62.917133,60.925621 64.705391,66.692062 
	C60.854568,66.692062 57.533020,66.692062 53.756168,66.692062 
	C54.510105,64.132431 55.202473,61.781830 55.986259,59.040024 
z"/>
</svg>