<svg version="1.1" id="Layer_1" xmlns="http://www.w3.org/2000/svg" xmlns:xlink="http://www.w3.org/1999/xlink" x="0px" y="0px"
	 width="100%" viewBox="0 0 102 88" enable-background="new 0 0 102 88" xml:space="preserve">
<path fill="#FBFBFB" opacity="1.000000" stroke="none" 
	d="
M65.000000,89.000000 
	C43.333332,89.000000 22.166666,89.000000 1.000000,89.000000 
	C1.000000,59.666668 1.000000,30.333334 1.000000,1.000000 
	C35.000000,1.000000 69.000000,1.000000 103.000000,1.000000 
	C103.000000,30.333334 103.000000,59.666668 103.000000,89.000000 
	C90.500000,89.000000 78.000000,89.000000 65.000000,89.000000 
M44.474682,15.824444 
	C34.626190,16.463400 27.901470,23.129221 28.020479,32.134533 
	C28.132774,40.631905 34.968075,47.669380 43.435085,48.005077 
	C52.072769,48.347542 59.472450,41.967476 60.139565,33.602341 
	C60.899155,24.077705 55.204308,17.253450 44.474682,15.824444 
M65.506859,77.498840 
	C66.638184,78.468491 67.658279,79.689369 68.963142,80.267059 
	C69.400505,80.460693 70.953804,79.181870 71.335526,78.292252 
	C75.532990,68.509827 67.617012,55.598286 56.878101,55.037193 
	C49.404831,54.646721 41.897785,54.891819 34.405777,54.873310 
	C19.221117,54.835796 15.757275,65.559380 16.838974,77.434563 
	C16.936787,78.508377 18.805498,80.375458 19.513903,80.229874 
	C20.782431,79.969185 22.390778,78.643402 22.772505,77.423439 
	C23.344906,75.594109 22.943237,73.470299 23.022097,71.474342 
	C23.281593,64.906319 26.691500,61.293354 33.273670,61.121399 
	C40.594738,60.930138 47.928791,60.926754 55.249512,61.125103 
	C61.591660,61.296936 64.922432,64.838608 65.242584,71.193031 
	C65.334694,73.021217 65.368774,74.852325 65.506859,77.498840 
M68.385384,18.929819 
	C66.022736,18.591530 62.382492,17.144690 61.535175,18.121222 
	C58.913189,21.143044 62.349358,22.374905 64.435600,23.897903 
	C70.449501,28.288189 69.917397,35.814941 63.637375,40.561413 
	C62.307629,41.566444 61.947376,43.854206 61.140434,45.550953 
	C63.028244,45.657249 65.293068,46.497063 66.743164,45.751747 
	C76.751648,40.607609 77.709099,28.112198 68.385384,18.929819 
M76.862305,55.582111 
	C75.269493,56.256901 73.676682,56.931694 72.083870,57.606483 
	C73.046654,58.943703 73.723923,60.935726 75.022827,61.502110 
	C80.015495,63.679161 81.793808,67.522614 81.809235,72.594193 
	C81.814285,74.255157 81.494499,76.028725 81.979485,77.540245 
	C82.347618,78.687592 83.746208,80.250237 84.703255,80.262138 
	C85.752625,80.275185 87.446510,78.912910 87.782738,77.818993 
	C90.415268,69.254128 86.002953,59.994736 76.862305,55.582111 
z"/>
<path fill="#555555" opacity="1.000000" stroke="none" 
	d="
M44.905800,15.844228 
	C55.204308,17.253450 60.899155,24.077705 60.139565,33.602341 
	C59.472450,41.967476 52.072769,48.347542 43.435085,48.005077 
	C34.968075,47.669380 28.132774,40.631905 28.020479,32.134533 
	C27.901470,23.129221 34.626190,16.463400 44.905800,15.844228 
M50.845741,24.610588 
	C46.890244,21.467955 42.727051,20.932220 38.499371,23.930332 
	C35.077816,26.356770 33.660046,29.799623 34.589893,33.920170 
	C35.559223,38.215694 38.380737,40.959892 42.706966,41.662537 
	C46.845943,42.334763 50.290257,40.643635 52.491459,37.111118 
	C55.075611,32.964046 54.461151,28.895554 50.845741,24.610588 
z"/>
<path fill="#555555" opacity="1.000000" stroke="none" 
	d="
M65.468163,77.090469 
	C65.368774,74.852325 65.334694,73.021217 65.242584,71.193031 
	C64.922432,64.838608 61.591660,61.296936 55.249512,61.125103 
	C47.928791,60.926754 40.594738,60.930138 33.273670,61.121399 
	C26.691500,61.293354 23.281593,64.906319 23.022097,71.474342 
	C22.943237,73.470299 23.344906,75.594109 22.772505,77.423439 
	C22.390778,78.643402 20.782431,79.969185 19.513903,80.229874 
	C18.805498,80.375458 16.936787,78.508377 16.838974,77.434563 
	C15.757275,65.559380 19.221117,54.835796 34.405777,54.873310 
	C41.897785,54.891819 49.404831,54.646721 56.878101,55.037193 
	C67.617012,55.598286 75.532990,68.509827 71.335526,78.292252 
	C70.953804,79.181870 69.400505,80.460693 68.963142,80.267059 
	C67.658279,79.689369 66.638184,78.468491 65.468163,77.090469 
z"/>
<path fill="#565656" opacity="1.000000" stroke="none" 
	d="
M68.676254,19.159245 
	C77.709099,28.112198 76.751648,40.607609 66.743164,45.751747 
	C65.293068,46.497063 63.028244,45.657249 61.140434,45.550957 
	C61.947376,43.854206 62.307629,41.566444 63.637375,40.561413 
	C69.917397,35.814941 70.449501,28.288189 64.435600,23.897903 
	C62.349358,22.374905 58.913189,21.143044 61.535175,18.121222 
	C62.382492,17.144690 66.022736,18.591530 68.676254,19.159245 
z"/>
<path fill="#585858" opacity="1.000000" stroke="none" 
	d="
M77.213295,55.719635 
	C86.002953,59.994736 90.415268,69.254128 87.782738,77.818993 
	C87.446510,78.912910 85.752625,80.275185 84.703255,80.262138 
	C83.746208,80.250237 82.347618,78.687592 81.979485,77.540245 
	C81.494499,76.028725 81.814285,74.255157 81.809235,72.594193 
	C81.793808,67.522614 80.015495,63.679161 75.022827,61.502110 
	C73.723923,60.935726 73.046654,58.943703 72.083870,57.606483 
	C73.676682,56.931694 75.269493,56.256901 77.213295,55.719635 
z"/>
<path fill="#F7F7F7" opacity="1.000000" stroke="none" 
	d="
M51.119789,24.884396 
	C54.461151,28.895554 55.075611,32.964046 52.491459,37.111118 
	C50.290257,40.643635 46.845943,42.334763 42.706966,41.662537 
	C38.380737,40.959892 35.559223,38.215694 34.589893,33.920170 
	C33.660046,29.799623 35.077816,26.356770 38.499371,23.930332 
	C42.727051,20.932220 46.890244,21.467955 51.119789,24.884396 
z"/>
</svg>