<svg version="1.1" id="Layer_1" xmlns="http://www.w3.org/2000/svg" xmlns:xlink="http://www.w3.org/1999/xlink" x="0px" y="0px"
	 width="100%" viewBox="0 0 126 127" enable-background="new 0 0 126 127" xml:space="preserve">
<path fill="#EEF3FB" opacity="1.000000" stroke="none" 
	d="
M68.000000,128.000000 
	C45.333332,128.000000 23.166666,128.000000 1.000000,128.000000 
	C1.000000,85.666664 1.000000,43.333332 1.000000,1.000000 
	C43.000000,1.000000 85.000000,1.000000 127.000000,1.000000 
	C127.000000,43.333332 127.000000,85.666664 127.000000,128.000000 
	C107.500000,128.000000 88.000000,128.000000 68.000000,128.000000 
M64.499947,126.239494 
	C80.161011,126.239456 95.822105,126.258537 111.483124,126.232056 
	C120.597290,126.216644 125.022346,121.850471 125.027481,112.856934 
	C125.045074,82.034622 125.043945,51.212280 125.028252,20.389961 
	C125.023621,11.293345 120.665947,6.890939 111.636345,6.885272 
	C80.814034,6.865926 49.991692,6.866352 19.169374,6.884869 
	C9.906282,6.890434 5.624133,11.068571 5.612652,20.248848 
	C5.574107,51.071125 5.579114,81.893501 5.609444,112.715805 
	C5.618527,121.946114 9.863453,126.205765 19.015854,126.229134 
	C33.843796,126.266991 48.671906,126.239487 64.499947,126.239494 
z"/>
<path fill="#0152CC" opacity="1.000000" stroke="none" 
	d="
M63.999947,126.239540 
	C48.671906,126.239487 33.843796,126.266991 19.015854,126.229134 
	C9.863453,126.205765 5.618527,121.946114 5.609444,112.715805 
	C5.579114,81.893501 5.574107,51.071125 5.612652,20.248848 
	C5.624133,11.068571 9.906282,6.890434 19.169374,6.884869 
	C49.991692,6.866352 80.814034,6.865926 111.636345,6.885272 
	C120.665947,6.890939 125.023621,11.293345 125.028252,20.389961 
	C125.043945,51.212280 125.045074,82.034622 125.027481,112.856934 
	C125.022346,121.850471 120.597290,126.216644 111.483124,126.232056 
	C95.822105,126.258537 80.161011,126.239456 63.999947,126.239540 
M42.894661,75.354996 
	C42.894661,75.354996 42.887707,75.769577 42.342533,76.167786 
	C41.604248,77.786179 40.865967,79.404564 39.711506,81.602638 
	C38.732925,83.502808 37.796997,85.426476 36.766132,87.297836 
	C35.064056,90.387672 35.754807,91.941673 39.461201,91.863602 
	C44.733086,91.752571 50.006786,91.727882 55.892292,91.862328 
	C60.160961,92.144287 59.849678,88.692818 60.853886,85.625732 
	C60.856983,85.088364 60.860081,84.550995 61.059601,83.276985 
	C61.017521,82.519867 60.975441,81.762749 61.098358,80.265671 
	C61.030411,79.514549 60.962467,78.763428 60.993217,77.308655 
	C60.692726,76.197845 60.392231,75.087029 60.166225,73.126694 
	C60.121582,71.720222 60.076939,70.313751 60.643036,69.257515 
	C62.201969,72.373016 64.305771,75.337128 65.221077,78.631462 
	C68.388306,90.030869 75.714821,93.943100 86.981834,91.822189 
	C89.556206,91.337585 92.244835,91.459953 95.846146,91.245483 
	C85.573578,70.748375 75.925117,51.496578 66.276665,32.244781 
	C65.576981,32.267456 64.877304,32.290131 64.177620,32.312805 
	C62.449245,36.304272 59.658295,40.184029 59.224373,44.311581 
	C58.437977,51.791832 59.056110,59.419746 58.502140,67.073540 
	C58.067413,66.678711 57.632690,66.283875 57.053978,65.201988 
	C55.520374,63.076462 53.986771,60.950932 51.856495,57.998428 
	C50.552185,60.368874 49.819946,61.699646 48.723743,63.532753 
	C48.443283,64.494881 48.162823,65.457016 47.287258,66.793777 
	C46.559277,68.200386 45.831291,69.607002 44.732723,71.450180 
	C44.532391,71.971581 44.332062,72.492981 43.767345,73.462944 
	C43.555828,73.980476 43.344311,74.498016 42.894661,75.354996 
z"/>
<path fill="#FAFCFE" opacity="1.000000" stroke="none" 
	d="
M59.087921,66.986015 
	C59.056110,59.419746 58.437977,51.791832 59.224373,44.311581 
	C59.658295,40.184029 62.449245,36.304272 64.177620,32.312805 
	C64.877304,32.290131 65.576981,32.267456 66.276665,32.244781 
	C75.925117,51.496578 85.573578,70.748375 95.846146,91.245483 
	C92.244835,91.459953 89.556206,91.337585 86.981834,91.822189 
	C75.714821,93.943100 68.388306,90.030869 65.221077,78.631462 
	C64.305771,75.337128 62.201969,72.373016 60.323929,69.116425 
	C60.004818,68.975342 60.074013,68.999474 60.054630,68.679977 
	C59.697403,67.884918 59.359558,67.409355 59.021366,66.968185 
	C59.021019,67.002586 59.087921,66.986015 59.087921,66.986015 
z"/>
<path fill="#F8FAFE" opacity="1.000000" stroke="none" 
	d="
M55.279709,91.666306 
	C50.006786,91.727882 44.733086,91.752571 39.461201,91.863602 
	C35.754807,91.941673 35.064056,90.387672 36.766132,87.297836 
	C37.796997,85.426476 38.732925,83.502808 40.262909,81.357269 
	C43.380596,82.504265 46.131424,83.645332 48.462791,85.357552 
	C50.942200,87.178474 53.024189,89.540535 55.279709,91.666306 
z"/>
<path fill="#DBE6F8" opacity="1.000000" stroke="none" 
	d="
M55.585999,91.764313 
	C53.024189,89.540535 50.942200,87.178474 48.462791,85.357552 
	C46.131424,83.645332 43.380596,82.504265 40.471001,81.067429 
	C40.865967,79.404564 41.604248,77.786179 42.764656,76.293030 
	C48.987988,79.645164 54.789204,82.872047 60.590416,86.098930 
	C59.849678,88.692818 60.160961,92.144287 55.585999,91.764313 
z"/>
<path fill="#8AB0E8" opacity="1.000000" stroke="none" 
	d="
M47.882362,66.419144 
	C48.162823,65.457016 48.443283,64.494881 49.258591,63.317665 
	C52.261612,64.031395 54.729790,64.960220 57.197964,65.889046 
	C57.632690,66.283875 58.067413,66.678711 58.795029,67.029778 
	C59.087921,66.986015 59.021019,67.002586 58.945545,67.311447 
	C59.271385,68.080032 59.672699,68.539757 60.074013,68.999474 
	C60.074013,68.999474 60.004818,68.975342 60.018555,68.941315 
	C60.076939,70.313751 60.121582,71.720222 59.768993,73.521111 
	C55.541962,71.416733 51.712162,68.917938 47.882362,66.419144 
z"/>
<path fill="#A4C1ED" opacity="1.000000" stroke="none" 
	d="
M47.584808,66.606461 
	C51.712162,68.917938 55.541962,71.416733 59.731750,73.945877 
	C60.392231,75.087029 60.692726,76.197845 60.577114,77.650414 
	C58.526981,77.265305 56.881721,76.562523 55.261261,75.806572 
	C51.868351,74.223763 48.488510,72.612938 45.103306,71.013611 
	C45.831291,69.607002 46.559277,68.200386 47.584808,66.606461 
z"/>
<path fill="#C0D4F2" opacity="1.000000" stroke="none" 
	d="
M60.933361,81.005630 
	C60.975441,81.762749 61.017521,82.519867 60.596260,83.635391 
	C54.466213,81.001053 48.799503,78.008301 43.132790,75.015549 
	C43.344311,74.498016 43.555828,73.980476 44.296982,73.282181 
	C50.195530,75.736160 55.564445,78.370895 60.933361,81.005630 
z"/>
<path fill="#B4CCF0" opacity="1.000000" stroke="none" 
	d="
M61.015862,80.635651 
	C55.564445,78.370895 50.195530,75.736160 44.479172,73.057907 
	C44.332062,72.492981 44.532391,71.971581 44.918015,71.231895 
	C48.488510,72.612938 51.868351,74.223763 55.261261,75.806572 
	C56.881721,76.562523 58.526981,77.265305 60.527763,78.002243 
	C60.962467,78.763428 61.030411,79.514549 61.015862,80.635651 
z"/>
<path fill="#D1E0F6" opacity="1.000000" stroke="none" 
	d="
M43.013725,75.185272 
	C48.799503,78.008301 54.466213,81.001053 60.498047,84.003716 
	C60.860081,84.550995 60.856983,85.088364 60.722153,85.862335 
	C54.789204,82.872047 48.987988,79.645164 43.037239,76.093933 
	C42.887707,75.769577 42.894661,75.354996 43.013725,75.185272 
z"/>
<path fill="#709EE2" opacity="1.000000" stroke="none" 
	d="
M57.125969,65.545517 
	C54.729790,64.960220 52.261612,64.031395 49.440571,63.066494 
	C49.819946,61.699646 50.552185,60.368874 51.856495,57.998428 
	C53.986771,60.950932 55.520374,63.076462 57.125969,65.545517 
z"/>
<path fill="#0152CC" opacity="1.000000" stroke="none" 
	d="
M60.054630,68.679977 
	C59.672699,68.539757 59.271385,68.080032 58.945892,67.277054 
	C59.359558,67.409355 59.697403,67.884918 60.054630,68.679977 
z"/>
</svg>