<svg version="1.1" id="Layer_1" xmlns="http://www.w3.org/2000/svg" xmlns:xlink="http://www.w3.org/1999/xlink" x="0px" y="0px"
	 width="100%" viewBox="0 0 160 144" enable-background="new 0 0 160 144" xml:space="preserve">
<path fill="#5D5D5D" opacity="1.000000" stroke="none" 
	d="
M72.975342,82.002754 
	C72.988205,77.344383 72.998558,73.184456 72.997223,69.024521 
	C72.995483,63.597889 75.443535,59.745098 80.536308,57.839504 
	C94.158974,52.742233 107.839760,52.706333 121.380486,58.038586 
	C126.110832,59.901363 128.539795,63.514927 128.398819,68.960129 
	C128.157715,78.272301 128.162735,87.599396 128.395615,96.911942 
	C128.526688,102.153435 126.233704,105.558052 121.659554,107.448311 
	C107.969574,113.105690 94.126831,112.911865 80.367355,107.796089 
	C75.353722,105.932022 72.919701,101.928108 72.979729,96.478233 
	C73.031036,91.819832 72.975761,87.160248 72.975342,82.002754 
M82.799606,93.120003 
	C80.259300,97.197929 80.743683,99.320396 85.103508,100.932236 
	C95.453918,104.758804 105.907974,104.588272 116.312904,101.066734 
	C120.310898,99.713615 121.661835,97.028435 119.865707,92.535027 
	C107.746101,96.241081 95.623085,96.294296 82.799606,93.120003 
M120.382919,77.520058 
	C118.847885,75.884758 117.178207,77.149483 115.752403,77.543640 
	C109.081902,79.387672 102.284271,79.722473 95.482613,79.178284 
	C90.933136,78.814278 86.443642,77.700653 81.935783,76.923943 
	C80.325279,81.456589 81.862228,83.983124 85.929008,85.253799 
	C96.072449,88.423157 106.160172,88.388138 116.254982,84.962959 
	C119.625351,83.819397 121.137802,81.722542 120.382919,77.520058 
M85.072105,68.816307 
	C96.649437,72.389091 108.005302,72.849556 119.582542,67.173401 
	C113.669510,60.846745 91.290947,61.326050 84.481010,65.034447 
	C82.356438,66.191406 82.301666,67.344345 85.072105,68.816307 
z"/>
<path fill="#5D5D5D" opacity="1.000000" stroke="none" 
	d="
M36.405083,95.208908 
	C34.772148,93.045853 34.656998,90.912971 34.660221,88.711739 
	C34.683643,72.720848 34.807991,56.728142 34.597534,40.739998 
	C34.528225,35.474525 36.700283,31.973463 41.324848,30.212748 
	C55.241318,24.914316 69.293083,24.679893 83.139595,30.368692 
	C88.854538,32.716660 91.526062,40.090813 89.549423,45.946178 
	C88.726601,48.383606 87.086830,49.730282 84.664581,49.015003 
	C82.417717,48.351513 80.464981,48.691730 78.352371,49.281704 
	C68.041977,52.161007 57.677292,52.164360 47.281303,49.714088 
	C46.006397,49.413601 44.699265,49.249832 43.445435,49.029449 
	C41.445297,54.616032 42.137802,56.535896 47.199356,58.353359 
	C51.598881,59.933113 56.216187,60.637348 60.908157,60.643681 
	C63.763382,60.647533 66.060341,61.589901 65.943443,64.785553 
	C65.834732,67.757576 63.492088,68.242790 60.913872,68.371284 
	C54.879395,68.672005 49.046726,67.468208 43.307251,65.936745 
	C41.485641,72.287590 42.183098,73.806496 47.659321,75.627434 
	C51.783268,76.998718 55.997726,77.860558 60.392017,77.725006 
	C63.347580,77.633835 66.084663,78.616608 65.916977,81.995705 
	C65.745895,85.443077 62.891529,85.656723 59.965389,85.641098 
	C54.311989,85.610886 48.833569,84.308098 43.398777,83.293770 
	C41.521782,89.294640 42.250423,90.939964 47.413654,92.770790 
	C51.529190,94.230118 55.777355,94.885735 60.159679,94.763985 
	C63.074982,94.682991 65.885239,95.552986 65.911003,98.886597 
	C65.939781,102.607681 62.830498,103.476532 59.836838,103.093216 
	C51.657356,102.045868 43.091217,101.988007 36.405083,95.208908 
M67.050682,34.388710 
	C59.049313,34.298153 50.957642,33.779293 43.538151,38.814846 
	C52.704826,45.206566 72.501228,45.114449 80.284424,38.807613 
	C76.902596,35.069614 72.086578,35.653320 67.050682,34.388710 
z"/>
</svg>