<svg version="1.1" id="Layer_1" xmlns="http://www.w3.org/2000/svg" xmlns:xlink="http://www.w3.org/1999/xlink" x="0px" y="0px"
	 width="100%" viewBox="0 0 101 125" enable-background="new 0 0 101 125" xml:space="preserve">
<path fill="#FFFFFF" opacity="1.000000" stroke="none" 
	d="
M64.000000,126.000000 
	C42.666668,126.000000 21.833334,126.000000 1.000000,126.000000 
	C1.000000,84.333336 1.000000,42.666668 1.000000,1.000000 
	C34.666668,1.000000 68.333336,1.000000 102.000000,1.000000 
	C102.000000,42.666668 102.000000,84.333336 102.000000,126.000000 
	C89.500000,126.000000 77.000000,126.000000 64.000000,126.000000 
M44.744911,69.320145 
	C49.387646,77.062698 55.035709,80.151764 61.656681,78.569603 
	C68.293808,76.983589 72.830818,71.745201 73.157829,65.290504 
	C73.554642,57.457920 69.823357,52.528259 61.975784,49.287743 
	C70.533134,46.203770 74.449661,39.991753 72.974785,31.842178 
	C71.719902,24.908184 65.486336,20.236547 57.253868,20.201757 
	C52.795956,20.182919 48.337208,20.361452 42.975048,20.274572 
	C38.679890,20.262127 34.382267,20.151112 30.090109,20.258514 
	C22.063629,20.459358 15.924744,25.553244 15.006291,32.620781 
	C13.980066,40.517635 17.882753,46.359562 26.235039,49.412064 
	C26.235039,49.412064 26.499426,49.792114 25.742168,49.965851 
	C17.596479,53.343040 14.055613,58.625320 15.015415,66.331978 
	C15.855264,73.075478 20.464285,76.584908 25.631886,79.248985 
	C24.865704,79.563499 24.078621,79.835388 23.336601,80.199188 
	C16.581503,83.510994 13.300156,90.742569 15.395511,97.662712 
	C17.488037,104.573509 24.310778,108.902588 31.601206,107.945335 
	C38.644241,107.020584 43.889038,100.931862 43.981155,93.384430 
	C44.039848,88.575523 43.893719,83.764107 43.960663,78.060364 
	C44.024109,75.052780 44.087555,72.045204 44.744911,69.320145 
z"/>
<path fill="#FD7566" opacity="1.000000" stroke="none" 
	d="
M43.878838,20.450951 
	C48.337208,20.361452 52.795956,20.182919 57.253868,20.201757 
	C65.486336,20.236547 71.719902,24.908184 72.974785,31.842178 
	C74.449661,39.991753 70.533134,46.203770 61.304810,49.506664 
	C58.508438,49.811985 56.383034,49.898384 53.783680,49.906654 
	C50.203125,49.903214 47.096519,49.977901 43.941154,49.915459 
	C43.892387,49.778328 43.909691,49.487755 43.934532,49.051865 
	C43.932526,39.227631 43.905682,29.839291 43.878838,20.450951 
z"/>
<path fill="#F24F1F" opacity="1.000000" stroke="none" 
	d="
M43.426941,20.362762 
	C43.905682,29.839291 43.932526,39.227631 43.483742,49.139221 
	C38.020603,49.587852 33.033100,49.513233 27.820572,49.276787 
	C27.053762,49.087513 26.511971,49.060066 25.970181,49.032616 
	C17.882753,46.359562 13.980066,40.517635 15.006291,32.620781 
	C15.924744,25.553244 22.063629,20.459358 30.090109,20.258514 
	C34.382267,20.151112 38.679890,20.262127 43.426941,20.362762 
z"/>
<path fill="#A25AFF" opacity="1.000000" stroke="none" 
	d="
M28.045593,49.438614 
	C33.033100,49.513233 38.020603,49.587852 43.458900,49.575111 
	C43.909691,49.487755 43.892387,49.778328 43.936302,50.366516 
	C44.037193,54.217934 44.094170,57.481159 44.129608,61.206936 
	C44.122375,64.125526 44.136688,66.581573 44.151001,69.037621 
	C44.087555,72.045204 44.024109,75.052780 43.444374,78.505539 
	C37.388134,78.938530 31.848177,78.926361 26.308220,78.914192 
	C20.464285,76.584908 15.855264,73.075478 15.015415,66.331978 
	C14.055613,58.625320 17.596479,53.343040 26.385845,49.869431 
	C27.368210,49.661545 27.706902,49.550079 28.045593,49.438614 
z"/>
<path fill="#0CCF84" opacity="1.000000" stroke="none" 
	d="
M25.970053,79.081589 
	C31.848177,78.926361 37.388134,78.938530 43.383759,78.952263 
	C43.893719,83.764107 44.039848,88.575523 43.981155,93.384430 
	C43.889038,100.931862 38.644241,107.020584 31.601206,107.945335 
	C24.310778,108.902588 17.488037,104.573509 15.395511,97.662712 
	C13.300156,90.742569 16.581503,83.510994 23.336601,80.199188 
	C24.078621,79.835388 24.865704,79.563499 25.970053,79.081589 
z"/>
<path fill="#1DBDFE" opacity="1.000000" stroke="none" 
	d="
M44.447956,69.178879 
	C44.136688,66.581573 44.122375,64.125526 44.361019,60.996307 
	C46.107445,55.271584 49.745182,52.220211 54.257633,49.984779 
	C56.383034,49.898384 58.508438,49.811985 61.003098,49.722755 
	C69.823357,52.528259 73.554642,57.457920 73.157829,65.290504 
	C72.830818,71.745201 68.293808,76.983589 61.656681,78.569603 
	C55.035709,80.151764 49.387646,77.062698 44.447956,69.178879 
z"/>
<path fill="#FD7566" opacity="1.000000" stroke="none" 
	d="
M27.820572,49.276791 
	C27.706902,49.550079 27.368210,49.661545 26.764473,49.782562 
	C26.499426,49.792114 26.235039,49.412064 26.102610,49.222343 
	C26.511971,49.060066 27.053762,49.087513 27.820572,49.276791 
z"/>
<path fill="#EFFAFF" opacity="1.000000" stroke="none" 
	d="
M53.783680,49.906651 
	C49.745182,52.220211 46.107445,55.271584 44.382561,60.533760 
	C44.094170,57.481159 44.037193,54.217934 43.985069,50.503647 
	C47.096519,49.977901 50.203125,49.903214 53.783680,49.906651 
z"/>
</svg>