<svg version="1.1" id="Layer_1" xmlns="http://www.w3.org/2000/svg" xmlns:xlink="http://www.w3.org/1999/xlink" x="0px" y="0px"
	 width="100%" viewBox="0 0 82 75" enable-background="new 0 0 82 75" xml:space="preserve">
<path fill="#DB4A2D" opacity="1.000000" stroke="none" 
	d="
M51.000000,76.000000 
	C34.000000,76.000000 17.500000,76.000000 1.000000,76.000000 
	C1.000000,51.000000 1.000000,26.000000 1.000000,1.000000 
	C28.333334,1.000000 55.666668,1.000000 83.000000,1.000000 
	C83.000000,26.000000 83.000000,51.000000 83.000000,76.000000 
	C72.500000,76.000000 62.000000,76.000000 51.000000,76.000000 
M71.140892,56.603180 
	C71.157959,56.415070 71.175018,56.226963 71.526184,55.283112 
	C71.667877,46.607071 71.874771,37.930984 71.868462,29.255053 
	C71.867683,28.174414 70.737152,27.094595 69.826523,25.369915 
	C67.252235,21.518263 63.621098,20.377426 59.152897,20.951439 
	C56.158657,21.336098 54.119884,20.570759 52.827850,17.105131 
	C50.401215,10.596145 44.789585,9.605709 38.438896,9.895697 
	C33.009171,10.143629 28.430836,11.832621 26.744993,17.006868 
	C25.487213,20.867290 23.351585,21.265379 20.210936,20.993021 
	C16.425949,20.664787 13.102625,21.348402 10.534142,25.226213 
	C10.021280,25.809361 9.508419,26.392508 8.982613,27.915951 
	C8.986107,37.952225 8.989601,47.988499 9.236566,58.389782 
	C9.414575,58.624508 9.618092,58.834515 10.133452,59.619495 
	C11.778326,61.366467 13.423199,63.113434 15.741261,65.328110 
	C16.209482,65.493263 16.677097,65.800919 17.146013,65.802910 
	C32.435154,65.867935 47.725243,65.978706 63.012211,65.811035 
	C64.336441,65.796509 65.640190,63.914814 67.107658,62.429356 
	C67.309868,62.138710 67.586975,61.974304 68.410309,62.179279 
	C69.316284,60.509411 70.222260,58.839542 71.140892,56.603180 
z"/>
<path fill="#FEFCFB" opacity="1.000000" stroke="none" 
	d="
M15.068071,64.860405 
	C13.423199,63.113434 11.778326,61.366467 10.068148,59.061584 
	C9.965524,58.328140 9.928205,58.152603 9.987390,57.739540 
	C10.132285,57.338081 10.180676,57.174156 10.382346,56.696587 
	C10.423890,54.586044 10.312156,52.789135 10.139352,50.527641 
	C10.117804,42.708481 10.157326,35.353901 10.347447,27.832500 
	C10.698568,27.437178 10.844111,27.177830 10.962120,26.579575 
	C11.030899,25.861910 11.072233,25.452301 11.113567,25.042692 
	C13.102625,21.348402 16.425949,20.664787 20.210936,20.993021 
	C23.351585,21.265379 25.487213,20.867290 26.744993,17.006868 
	C28.430836,11.832621 33.009171,10.143629 38.438896,9.895697 
	C44.789585,9.605709 50.401215,10.596145 52.827850,17.105131 
	C54.119884,20.570759 56.158657,21.336098 59.152897,20.951439 
	C63.621098,20.377426 67.252235,21.518263 69.901321,26.022423 
	C70.019508,27.123234 70.062897,27.571539 70.040436,28.481312 
	C70.054131,38.320332 70.133682,47.697884 70.130798,57.314484 
	C69.975594,57.705597 69.902824,57.857658 69.673965,58.170464 
	C69.315109,58.554829 69.155708,58.805973 69.010918,59.399055 
	C68.634445,60.454369 68.286713,61.195251 67.938980,61.936138 
	C67.586975,61.974304 67.309868,62.138710 66.684662,62.712708 
	C64.857010,63.605938 63.452347,64.215813 61.687759,64.617165 
	C47.628761,64.270607 33.929802,64.113556 20.230398,64.030624 
	C19.133043,64.023987 18.032595,64.528488 16.626850,64.863907 
	C15.902768,64.908379 15.485419,64.884392 15.068071,64.860405 
M15.009481,28.978830 
	C14.995536,33.441093 14.864477,37.906872 14.998198,42.364708 
	C15.154533,47.576477 15.541764,52.781315 16.237524,58.672489 
	C19.722551,60.099392 23.221584,61.825394 26.822346,57.459087 
	C26.731222,55.243114 26.640099,53.027142 26.556164,50.273949 
	C26.554480,49.915779 26.552797,49.557610 26.861105,48.277550 
	C26.627029,41.185349 26.392954,34.093147 25.687704,26.295380 
	C22.833036,26.213758 19.978367,26.132137 16.548113,26.078556 
	C16.063061,26.736084 15.578011,27.393610 15.009481,28.978830 
M31.919449,29.936670 
	C31.879915,39.289936 31.840380,48.643200 31.646992,58.226616 
	C31.562679,58.513859 31.625792,58.765049 32.138607,59.559139 
	C32.753250,59.650108 33.367897,59.741077 34.883892,59.974316 
	C39.226925,59.607140 43.569958,59.239964 48.478733,58.285667 
	C48.661503,51.235626 48.977226,44.185440 48.969341,37.135612 
	C48.965565,33.756107 48.349384,30.377289 47.465286,26.764263 
	C46.649075,26.895090 45.832867,27.025917 44.111298,27.022926 
	C41.056774,27.069662 38.002254,27.116398 34.432411,26.915258 
	C33.646099,26.956421 32.859791,26.997585 31.741112,27.339455 
	C31.758305,27.895624 31.775499,28.451794 31.919449,29.936670 
M53.501610,27.673859 
	C53.321873,32.421604 52.948402,37.171959 53.012295,41.916424 
	C53.089119,47.620770 53.538105,53.320099 54.311939,59.697800 
	C57.485435,59.095230 60.658936,58.492664 64.186813,57.165596 
	C64.324615,54.450638 64.462418,51.735683 64.799690,48.100258 
	C64.736420,42.393185 64.673149,36.686111 64.783730,30.355940 
	C64.760948,29.926626 64.738167,29.497311 64.824120,28.557245 
	C64.533661,28.427954 64.243195,28.298662 63.242992,27.772354 
	C60.847927,27.571833 58.452866,27.371313 55.382046,27.014669 
	C54.922768,27.014090 54.463493,27.013510 53.501610,27.673859 
M43.089687,20.998108 
	C45.479897,21.013624 48.539177,19.880495 46.447224,17.695965 
	C44.514778,15.678001 40.301888,15.218772 37.101318,15.240569 
	C34.598770,15.257612 31.963566,16.963015 33.447071,20.997658 
	C36.260216,20.997658 39.225643,20.997658 43.089687,20.998108 
z"/>
<path fill="#C5523B" opacity="1.000000" stroke="none" 
	d="
M15.404666,65.094254 
	C15.485419,64.884392 15.902768,64.908379 17.098072,64.919357 
	C32.599911,64.879471 47.323799,64.852585 62.047684,64.825691 
	C63.452347,64.215813 64.857010,63.605938 66.607559,62.948250 
	C65.640190,63.914814 64.336441,65.796509 63.012211,65.811035 
	C47.725243,65.978706 32.435154,65.867935 17.146013,65.802910 
	C16.677097,65.800919 16.209482,65.493263 15.404666,65.094254 
z"/>
<path fill="#CA5037" opacity="1.000000" stroke="none" 
	d="
M70.106285,28.019844 
	C70.062897,27.571539 70.019508,27.123234 70.053116,26.344662 
	C70.737152,27.094595 71.867683,28.174414 71.868462,29.255053 
	C71.874771,37.930984 71.667877,46.607071 71.306839,55.190815 
	C71.060432,52.291100 71.105515,49.480747 70.991585,46.676857 
	C70.738815,40.456135 70.406288,34.238647 70.106285,28.019844 
z"/>
<path fill="#B45946" opacity="1.000000" stroke="none" 
	d="
M10.229068,57.010227 
	C10.180676,57.174156 10.132285,57.338081 9.762991,57.752583 
	C9.442089,58.003155 8.993095,58.024773 8.993095,58.024773 
	C8.989601,47.988499 8.986107,37.952225 9.262611,27.465349 
	C9.724931,27.028196 9.907250,27.041643 10.068832,27.296555 
	C10.048095,27.538015 10.196847,27.999325 10.196848,27.999325 
	C10.157326,35.353901 10.117804,42.708481 10.059912,50.952671 
	C10.104050,53.564934 10.166558,55.287579 10.229068,57.010227 
z"/>
<path fill="#CD7F70" opacity="1.000000" stroke="none" 
	d="
M70.040436,28.481312 
	C70.406288,34.238647 70.738815,40.456135 70.991585,46.676857 
	C71.105515,49.480747 71.060432,52.291100 71.139786,55.568687 
	C71.175018,56.226963 71.157959,56.415070 70.904358,56.872871 
	C70.667824,57.142563 70.213226,57.075436 70.213226,57.075436 
	C70.133682,47.697884 70.054131,38.320332 70.040436,28.481312 
z"/>
<path fill="#CA5037" opacity="1.000000" stroke="none" 
	d="
M70.130791,57.314484 
	C70.213226,57.075436 70.667824,57.142563 70.898033,57.156120 
	C70.222260,58.839542 69.316284,60.509411 68.174644,62.057709 
	C68.286713,61.195251 68.634445,60.454369 69.251396,59.307148 
	C69.623756,58.603779 69.726906,58.306751 69.830063,58.009724 
	C69.902824,57.857658 69.975594,57.705597 70.130791,57.314484 
z"/>
<path fill="#CD4F36" opacity="1.000000" stroke="none" 
	d="
M10.089571,27.055092 
	C9.907250,27.041643 9.724931,27.028196 9.269085,26.995201 
	C9.508419,26.392508 10.021280,25.809361 10.823854,25.134453 
	C11.072233,25.452301 11.030899,25.861910 10.751715,26.625248 
	C10.513863,26.978979 10.089571,27.055092 10.089571,27.055092 
z"/>
<path fill="#CD4F36" opacity="1.000000" stroke="none" 
	d="
M9.114830,58.207275 
	C8.993095,58.024773 9.442089,58.003155 9.666488,57.990112 
	C9.928205,58.152603 9.965524,58.328140 9.924980,58.761742 
	C9.618092,58.834515 9.414575,58.624508 9.114830,58.207275 
z"/>
<path fill="#DB4A2D" opacity="1.000000" stroke="none" 
	d="
M34.947731,27.163136 
	C38.002254,27.116398 41.056774,27.069662 44.817184,27.366970 
	C46.004162,29.572651 46.822247,31.420273 46.900379,33.298672 
	C47.099701,38.090687 46.988655,42.896519 46.966160,47.696659 
	C46.913246,58.988941 47.923046,57.948586 36.952888,58.018509 
	C35.959782,58.024837 34.966740,58.042091 33.780746,57.685280 
	C33.434124,48.402283 33.213558,39.488300 33.209862,30.574230 
	C33.209389,29.437439 34.340729,28.300179 34.947731,27.163136 
z"/>
<path fill="#DA4A2D" opacity="1.000000" stroke="none" 
	d="
M56.057800,27.170794 
	C58.452866,27.371313 60.847927,27.571833 63.682861,28.155113 
	C64.249527,28.793684 64.447075,28.970392 64.715385,29.067997 
	C64.738167,29.497311 64.760948,29.926626 64.342560,30.762417 
	C61.571815,34.172260 61.087574,45.704815 63.233143,48.475792 
	C63.491879,48.809944 64.135170,48.846329 64.600220,49.020725 
	C64.462418,51.735683 64.324615,54.450638 63.571434,57.545631 
	C60.209339,57.387230 55.500320,59.838005 55.325844,55.131729 
	C54.981121,45.833241 55.749611,36.493484 56.057800,27.170794 
z"/>
<path fill="#D34D31" opacity="1.000000" stroke="none" 
	d="
M42.640377,20.997883 
	C39.225643,20.997658 36.260216,20.997658 33.447071,20.997658 
	C31.963566,16.963015 34.598770,15.257612 37.101318,15.240569 
	C40.301888,15.218772 44.514778,15.678001 46.447224,17.695965 
	C48.539177,19.880495 45.479897,21.013624 42.640377,20.997883 
z"/>
<path fill="#C6513C" opacity="1.000000" stroke="none" 
	d="
M26.551115,49.199440 
	C26.552797,49.557610 26.554480,49.915779 26.382681,50.914845 
	C26.296047,53.768291 26.382896,55.980846 26.469746,58.193398 
	C23.221584,61.825394 19.722551,60.099392 16.113176,58.082588 
	C16.042593,57.326683 16.096357,57.160675 16.368263,56.995781 
	C16.586405,56.996899 17.022812,56.998146 17.360359,57.198082 
	C24.267324,58.618141 24.960218,58.072212 24.986031,51.500240 
	C25.010168,45.354595 25.116295,39.204517 24.906437,33.065956 
	C24.851643,31.463154 23.856560,28.618176 23.116234,28.558994 
	C21.125990,28.399887 19.040039,29.437950 16.786568,30.000828 
	C16.581047,30.000957 16.170006,30.001501 16.114948,29.655529 
	C15.995755,28.846954 15.931623,28.384354 15.985468,27.660065 
	C16.443529,26.949091 16.783615,26.499805 17.123699,26.050518 
	C19.978367,26.132137 22.833036,26.213758 25.867744,27.109417 
	C26.215561,35.015450 26.383339,42.107445 26.551115,49.199440 
z"/>
<path fill="#C05440" opacity="1.000000" stroke="none" 
	d="
M33.973671,58.054272 
	C34.966740,58.042091 35.959782,58.024837 36.952888,58.018509 
	C47.923046,57.948586 46.913246,58.988941 46.966160,47.696659 
	C46.988655,42.896519 47.099701,38.090687 46.900379,33.298672 
	C46.822247,31.420273 46.004162,29.572651 45.269863,27.433878 
	C45.832867,27.025917 46.649075,26.895090 47.732548,27.349869 
	C47.970871,38.247913 47.941933,48.560352 47.912994,58.872787 
	C43.569958,59.239964 39.226925,59.607140 34.434174,59.606575 
	C33.980858,58.843979 33.977264,58.449123 33.973671,58.054272 
z"/>
<path fill="#D44C33" opacity="1.000000" stroke="none" 
	d="
M64.699951,48.560493 
	C64.135170,48.846329 63.491879,48.809944 63.233143,48.475792 
	C61.087574,45.704815 61.571815,34.172260 64.255630,31.073965 
	C64.673149,36.686111 64.736420,42.393185 64.699951,48.560493 
z"/>
<path fill="#BD5440" opacity="1.000000" stroke="none" 
	d="
M55.719925,27.092731 
	C55.749611,36.493484 54.981121,45.833241 55.325844,55.131729 
	C55.500320,59.838005 60.209339,57.387230 63.394245,57.907883 
	C60.658936,58.492664 57.485435,59.095230 54.135735,58.894691 
	C53.974426,47.732037 53.989323,37.372482 54.004219,27.012932 
	C54.463493,27.013510 54.922768,27.014090 55.719925,27.092731 
z"/>
<path fill="#FECDC4" opacity="1.000000" stroke="none" 
	d="
M61.687759,64.617165 
	C47.323799,64.852585 32.599911,64.879471 17.404804,64.850906 
	C18.032595,64.528488 19.133043,64.023987 20.230398,64.030624 
	C33.929802,64.113556 47.628761,64.270607 61.687759,64.617165 
z"/>
<path fill="#B35947" opacity="1.000000" stroke="none" 
	d="
M33.780746,57.685280 
	C33.977264,58.449123 33.980858,58.843979 33.983498,59.535439 
	C33.367897,59.741077 32.753250,59.650108 32.037544,59.021740 
	C31.891270,58.321720 31.846058,58.159096 31.800846,57.996468 
	C31.840380,48.643200 31.879915,39.289936 31.938353,29.149815 
	C31.995998,27.921555 32.034740,27.480152 32.073479,27.038750 
	C32.859791,26.997585 33.646099,26.956421 34.690071,27.039196 
	C34.340729,28.300179 33.209389,29.437439 33.209862,30.574230 
	C33.213558,39.488300 33.434124,48.402283 33.780746,57.685280 
z"/>
<path fill="#FFCABE" opacity="1.000000" stroke="none" 
	d="
M48.195862,58.579227 
	C47.941933,48.560352 47.970871,38.247913 48.005180,27.466818 
	C48.349384,30.377289 48.965565,33.756107 48.969341,37.135612 
	C48.977226,44.185440 48.661503,51.235626 48.195862,58.579227 
z"/>
<path fill="#FFCBBE" opacity="1.000000" stroke="none" 
	d="
M53.752914,27.343395 
	C53.989323,37.372482 53.974426,47.732037 53.892746,58.556595 
	C53.538105,53.320099 53.089119,47.620770 53.012295,41.916424 
	C52.948402,37.171959 53.321873,32.421604 53.752914,27.343395 
z"/>
<path fill="#F3A091" opacity="1.000000" stroke="none" 
	d="
M16.150120,56.994663 
	C16.096357,57.160675 16.042593,57.326683 15.908827,57.740929 
	C15.541764,52.781315 15.154533,47.576477 14.998198,42.364708 
	C14.864477,37.906872 14.995536,33.441093 15.246229,28.490841 
	C15.482977,28.002853 15.867491,27.921753 15.867491,27.921753 
	C15.931623,28.384354 15.995755,28.846954 16.067532,30.122046 
	C16.100157,39.621246 16.125137,48.307953 16.150120,56.994663 
z"/>
<path fill="#F1A193" opacity="1.000000" stroke="none" 
	d="
M26.706110,48.738495 
	C26.383339,42.107445 26.215561,35.015450 26.103331,27.462200 
	C26.392954,34.093147 26.627029,41.185349 26.706110,48.738495 
z"/>
<path fill="#F1A193" opacity="1.000000" stroke="none" 
	d="
M26.646046,57.826241 
	C26.382896,55.980846 26.296047,53.768291 26.379086,51.183456 
	C26.640099,53.027142 26.731222,55.243114 26.646046,57.826241 
z"/>
<path fill="#FFEFE4" opacity="1.000000" stroke="none" 
	d="
M10.382346,56.696587 
	C10.166558,55.287579 10.104050,53.564934 10.120981,51.417259 
	C10.312156,52.789135 10.423890,54.586044 10.382346,56.696587 
z"/>
<path fill="#FEF9F3" opacity="1.000000" stroke="none" 
	d="
M15.985468,27.660065 
	C15.867491,27.921753 15.482977,28.002853 15.287968,28.026995 
	C15.578011,27.393610 16.063061,26.736084 16.835907,26.064537 
	C16.783615,26.499805 16.443529,26.949091 15.985468,27.660065 
z"/>
<path fill="#FFF0E6" opacity="1.000000" stroke="none" 
	d="
M31.907295,27.189102 
	C32.034740,27.480152 31.995998,27.921555 31.874975,28.685461 
	C31.775499,28.451794 31.758305,27.895624 31.907295,27.189102 
z"/>
<path fill="#DA7B67" opacity="1.000000" stroke="none" 
	d="
M64.769753,28.812622 
	C64.447075,28.970392 64.249527,28.793684 64.037735,28.353622 
	C64.243195,28.298662 64.533661,28.427954 64.769753,28.812622 
z"/>
<path fill="#FFEFE4" opacity="1.000000" stroke="none" 
	d="
M10.068832,27.296555 
	C10.089571,27.055092 10.513863,26.978979 10.724268,26.933304 
	C10.844111,27.177830 10.698568,27.437178 10.347446,27.832500 
	C10.196847,27.999325 10.048095,27.538015 10.068832,27.296555 
z"/>
<path fill="#FFF0E6" opacity="1.000000" stroke="none" 
	d="
M31.723919,58.111542 
	C31.846058,58.159096 31.891270,58.321720 31.886406,58.732262 
	C31.625792,58.765049 31.562679,58.513859 31.723919,58.111542 
z"/>
<path fill="#FFF3ED" opacity="1.000000" stroke="none" 
	d="
M69.673965,58.170464 
	C69.726906,58.306751 69.623756,58.603779 69.280128,58.992722 
	C69.155708,58.805973 69.315109,58.554829 69.673965,58.170464 
z"/>
<path fill="#DA4A2D" opacity="1.000000" stroke="none" 
	d="
M16.992086,30.000698 
	C19.040039,29.437950 21.125990,28.399887 23.116234,28.558994 
	C23.856560,28.618176 24.851643,31.463154 24.906437,33.065956 
	C25.116295,39.204517 25.010168,45.354595 24.986031,51.500240 
	C24.960218,58.072212 24.267324,58.618141 17.359119,56.729633 
	C17.010920,47.374393 17.001503,38.687546 16.992086,30.000698 
z"/>
<path fill="#C7513B" opacity="1.000000" stroke="none" 
	d="
M16.786568,30.000828 
	C17.001503,38.687546 17.010920,47.374393 17.021572,56.529694 
	C17.022812,56.998146 16.586405,56.996899 16.368263,56.995781 
	C16.125137,48.307953 16.100157,39.621246 16.122591,30.468018 
	C16.170006,30.001501 16.581047,30.000957 16.786568,30.000828 
z"/>
</svg>