<svg version="1.1" id="Layer_1" xmlns="http://www.w3.org/2000/svg" xmlns:xlink="http://www.w3.org/1999/xlink" x="0px" y="0px"
	 width="100%" viewBox="0 0 85 87" enable-background="new 0 0 85 87" xml:space="preserve">
<path fill="#FBFBFB" opacity="1.000000" stroke="none" 
	d="
M53.000000,88.000000 
	C35.333336,88.000000 18.166676,88.000000 1.000009,88.000000 
	C1.000006,59.000011 1.000006,30.000023 1.000003,1.000025 
	C29.333315,1.000016 57.666630,1.000016 85.999954,1.000008 
	C85.999969,29.999975 85.999969,58.999950 85.999985,87.999962 
	C75.166664,88.000000 64.333336,88.000000 53.000000,88.000000 
M45.597145,13.687981 
	C35.529408,10.657189 26.931627,13.928678 22.866434,22.337099 
	C19.142612,30.039434 21.325350,39.293941 28.021749,44.194946 
	C36.599373,50.472794 48.143047,48.459873 53.734081,39.711372 
	C59.538780,30.628540 56.405197,19.770573 45.597145,13.687981 
M39.389580,52.991116 
	C35.734589,52.991123 32.079578,52.984329 28.424603,52.992355 
	C15.595367,53.020531 9.080531,59.713463 9.776579,72.518280 
	C9.860101,74.054779 11.580366,75.502319 12.542004,76.991089 
	C13.673677,75.508934 14.920616,74.096413 15.879073,72.509628 
	C16.251226,71.893501 15.963294,70.883476 15.990393,70.053360 
	C16.219433,63.036785 19.765532,59.412556 26.840029,59.201111 
	C31.321720,59.067154 35.832615,59.440979 40.288136,59.073891 
	C43.027073,58.848228 47.763321,61.176201 47.976067,56.372921 
	C48.217484,50.922306 43.137215,53.733192 39.389580,52.991116 
M59.093437,61.187386 
	C54.665348,62.388855 53.963272,63.929436 56.620419,67.029709 
	C58.232182,68.910263 60.136833,70.536743 61.855888,72.329170 
	C63.909882,74.470840 65.860565,74.238503 67.843338,72.245827 
	C71.464775,68.606285 75.317429,65.164764 78.618950,61.256546 
	C79.753922,59.913010 79.531273,57.422611 79.928841,55.456139 
	C77.930893,55.964237 75.413567,55.884544 74.039474,57.098690 
	C70.849205,59.917591 68.210838,63.361095 65.367188,66.530899 
	C62.936665,64.344200 61.345509,62.912670 59.093437,61.187386 
z"/>
<path fill="#575757" opacity="1.000000" stroke="none" 
	d="
M45.953972,13.838701 
	C56.405197,19.770573 59.538780,30.628540 53.734081,39.711372 
	C48.143047,48.459873 36.599373,50.472794 28.021749,44.194946 
	C21.325350,39.293941 19.142612,30.039434 22.866434,22.337099 
	C26.931627,13.928678 35.529408,10.657189 45.953972,13.838701 
M27.681324,32.705910 
	C29.028410,37.728157 32.245007,40.713882 37.418442,41.372227 
	C41.706135,41.917858 45.266827,40.416115 47.911850,36.988052 
	C50.907185,33.105965 50.971184,27.494211 48.167900,23.507622 
	C45.237656,19.340464 39.755219,17.601097 34.895042,19.296656 
	C29.842709,21.059252 27.314934,25.374216 27.681324,32.705910 
z"/>
<path fill="#535353" opacity="1.000000" stroke="none" 
	d="
M39.871689,52.991116 
	C43.137215,53.733192 48.217484,50.922306 47.976067,56.372921 
	C47.763321,61.176201 43.027073,58.848228 40.288136,59.073891 
	C35.832615,59.440979 31.321720,59.067154 26.840029,59.201111 
	C19.765532,59.412556 16.219433,63.036785 15.990393,70.053360 
	C15.963294,70.883476 16.251226,71.893501 15.879073,72.509628 
	C14.920616,74.096413 13.673677,75.508934 12.542003,76.991089 
	C11.580366,75.502319 9.860101,74.054779 9.776579,72.518280 
	C9.080531,59.713463 15.595367,53.020531 28.424603,52.992355 
	C32.079578,52.984329 35.734589,52.991123 39.871689,52.991116 
z"/>
<path fill="#5C5C5C" opacity="1.000000" stroke="none" 
	d="
M59.423897,61.334263 
	C61.345509,62.912670 62.936665,64.344200 65.367188,66.530899 
	C68.210838,63.361095 70.849205,59.917591 74.039474,57.098690 
	C75.413567,55.884544 77.930893,55.964237 79.928833,55.456139 
	C79.531273,57.422611 79.753922,59.913010 78.618950,61.256546 
	C75.317429,65.164764 71.464775,68.606285 67.843338,72.245827 
	C65.860565,74.238503 63.909882,74.470840 61.855888,72.329170 
	C60.136833,70.536743 58.232182,68.910263 56.620419,67.029709 
	C53.963272,63.929436 54.665348,62.388855 59.423897,61.334263 
z"/>
<path fill="#F8F8F8" opacity="1.000000" stroke="none" 
	d="
M27.576073,32.337936 
	C27.314934,25.374216 29.842709,21.059252 34.895042,19.296656 
	C39.755219,17.601097 45.237656,19.340464 48.167900,23.507622 
	C50.971184,27.494211 50.907185,33.105965 47.911850,36.988052 
	C45.266827,40.416115 41.706135,41.917858 37.418442,41.372227 
	C32.245007,40.713882 29.028410,37.728157 27.576073,32.337936 
z"/>
</svg>