<svg version="1.1" id="Layer_1" xmlns="http://www.w3.org/2000/svg" xmlns:xlink="http://www.w3.org/1999/xlink" x="0px" y="0px"
	 width="100%" viewBox="0 0 53 62" enable-background="new 0 0 53 62" xml:space="preserve">
<path fill="#FBFBFB" opacity="1.000000" stroke="none" 
	d="
M33.000561,63.000000 
	C22.000402,63.000000 11.500417,63.000000 1.000323,63.000000 
	C1.000215,42.333504 1.000215,21.667007 1.000108,1.000384 
	C18.666473,1.000256 36.332947,1.000256 53.999565,1.000128 
	C53.999710,21.666445 53.999710,42.332890 53.999855,62.999668 
	C47.166912,63.000000 40.333820,63.000000 33.000561,63.000000 
M12.241284,10.087271 
	C7.380815,11.436978 5.161934,14.834552 5.126549,19.677036 
	C5.051186,29.990463 5.013132,40.306438 5.199581,50.617031 
	C5.227403,52.155586 6.193532,54.253319 7.401401,55.001900 
	C8.279425,55.546059 10.782429,54.755836 11.682633,53.763683 
	C16.801241,48.122246 23.225571,47.259930 30.281120,47.854206 
	C33.418839,48.118488 36.602287,47.980560 39.758366,47.856701 
	C46.316517,47.599327 49.574093,44.523392 49.798798,37.989880 
	C50.010193,31.843384 50.007481,25.676626 49.773090,19.531214 
	C49.522938,12.972528 46.246510,10.010809 39.554688,9.971891 
	C30.738556,9.920619 21.921724,9.988833 12.241284,10.087271 
z"/>
<path fill="#606060" opacity="1.000000" stroke="none" 
	d="
M12.673239,10.046473 
	C21.921724,9.988833 30.738556,9.920619 39.554688,9.971891 
	C46.246510,10.010809 49.522938,12.972528 49.773090,19.531214 
	C50.007481,25.676626 50.010193,31.843384 49.798798,37.989880 
	C49.574093,44.523392 46.316517,47.599327 39.758366,47.856701 
	C36.602287,47.980560 33.418839,48.118488 30.281120,47.854206 
	C23.225571,47.259930 16.801241,48.122246 11.682633,53.763683 
	C10.782429,54.755836 8.279425,55.546059 7.401401,55.001900 
	C6.193532,54.253319 5.227403,52.155586 5.199581,50.617031 
	C5.013132,40.306438 5.051186,29.990463 5.126549,19.677036 
	C5.161934,14.834552 7.380815,11.436978 12.673239,10.046473 
M9.860662,17.990599 
	C9.860662,28.212633 9.860662,38.434666 9.860662,50.212212 
	C16.379419,41.808784 24.497206,43.456951 32.193096,43.363869 
	C34.524952,43.335667 36.860767,43.230862 39.188171,43.324715 
	C43.727749,43.507763 45.413048,41.304569 45.256519,36.908894 
	C45.060993,31.418095 45.046951,25.908737 45.259632,20.419209 
	C45.439861,15.767356 43.120800,14.178275 38.892235,14.204521 
	C31.395569,14.251052 23.888744,14.010403 16.407564,14.354736 
	C14.245612,14.454244 12.156770,16.142145 9.860662,17.990599 
z"/>
<path fill="#FAFAFA" opacity="1.000000" stroke="none" 
	d="
M9.947536,17.546223 
	C12.156770,16.142145 14.245612,14.454244 16.407564,14.354736 
	C23.888744,14.010403 31.395569,14.251052 38.892235,14.204521 
	C43.120800,14.178275 45.439861,15.767356 45.259632,20.419209 
	C45.046951,25.908737 45.060993,31.418095 45.256519,36.908894 
	C45.413048,41.304569 43.727749,43.507763 39.188171,43.324715 
	C36.860767,43.230862 34.524952,43.335667 32.193096,43.363869 
	C24.497206,43.456951 16.379419,41.808784 9.860662,50.212212 
	C9.860662,38.434666 9.860662,28.212633 9.947536,17.546223 
z"/>
</svg>