<svg version="1.1" id="Layer_1" xmlns="http://www.w3.org/2000/svg" xmlns:xlink="http://www.w3.org/1999/xlink" x="0px" y="0px"
	 width="100%" viewBox="0 0 68 67" enable-background="new 0 0 68 67" xml:space="preserve">
<path fill="#FFFFFE" opacity="1.000000" stroke="none" 
	d="
M44.000038,68.000000 
	C29.333355,68.000000 15.166689,68.000000 1.000018,68.000000 
	C1.000012,45.666676 1.000012,23.333355 1.000006,1.000024 
	C23.666655,1.000016 46.333309,1.000016 68.999969,1.000008 
	C68.999985,23.333319 68.999985,45.666637 68.999992,67.999977 
	C60.833351,68.000000 52.666702,68.000000 44.000038,68.000000 
M57.737614,19.394598 
	C63.242741,16.685312 63.372459,11.559258 57.643543,6.341719 
	C56.060303,6.537651 54.477058,6.733583 52.182713,6.997381 
	C50.721497,8.987783 49.260281,10.978186 47.416458,12.773835 
	C47.187553,12.585002 47.034763,12.347252 46.858406,11.708152 
	C46.571491,11.734414 46.284573,11.760676 45.064663,11.869691 
	C35.753384,11.892430 26.441429,11.855034 17.131079,11.959991 
	C11.352793,12.025129 8.476945,13.934775 8.008906,19.589333 
	C7.257545,28.666834 7.305168,37.818829 7.238825,46.940968 
	C7.207924,51.189877 7.701502,55.442596 8.023880,60.799183 
	C10.815759,59.675358 13.170868,59.413177 14.429809,58.100056 
	C19.474146,52.838646 25.700912,52.539310 32.284054,52.971146 
	C34.933022,53.144917 37.646938,53.308701 40.255852,52.941299 
	C50.905907,51.441486 54.759270,50.969879 55.042294,38.960571 
	C55.089283,36.966820 55.122429,34.972740 55.547962,32.672482 
	C55.421734,32.122509 55.295506,31.572536 55.087543,30.123808 
	C55.122936,27.422039 55.158325,24.720268 55.855049,21.859497 
	C56.266304,21.108356 56.677559,20.357218 57.737614,19.394598 
z"/>
<path fill="#B0B0B0" opacity="1.000000" stroke="none" 
	d="
M46.958092,12.060584 
	C47.034763,12.347252 47.187553,12.585002 47.669685,13.238523 
	C47.953632,14.450699 47.984356,15.198187 48.002167,16.189819 
	C47.989250,16.433964 47.940063,16.920046 47.524384,16.912544 
	C37.338150,16.875505 27.567345,16.877752 17.797163,16.800835 
	C13.871329,16.769928 12.013741,18.506313 12.061988,22.516287 
	C12.183947,32.652687 12.179721,42.790604 12.224375,53.130257 
	C12.497046,53.232285 12.771390,53.131969 13.357175,52.884052 
	C17.625984,49.040970 22.167559,47.433048 27.694006,47.911537 
	C32.485500,48.326393 37.346825,48.136154 42.167839,47.957878 
	C48.293892,47.731350 49.847488,45.830444 50.036381,39.738228 
	C50.251266,32.807766 50.741116,25.885826 51.402531,19.098915 
	C52.472462,19.556438 53.251305,19.875231 54.151642,20.436436 
	C54.579994,21.125402 54.886852,21.571951 55.193710,22.018501 
	C55.158325,24.720268 55.122936,27.422039 55.065147,30.896912 
	C55.082493,32.106281 55.122234,32.542545 55.161972,32.978813 
	C55.122429,34.972740 55.089283,36.966820 55.042294,38.960571 
	C54.759270,50.969879 50.905907,51.441486 40.255852,52.941299 
	C37.646938,53.308701 34.933022,53.144917 32.284054,52.971146 
	C25.700912,52.539310 19.474146,52.838646 14.429809,58.100056 
	C13.170868,59.413177 10.815759,59.675358 8.023880,60.799183 
	C7.701502,55.442596 7.207924,51.189877 7.238825,46.940968 
	C7.305168,37.818829 7.257545,28.666834 8.008906,19.589333 
	C8.476945,13.934775 11.352793,12.025129 17.131079,11.959991 
	C26.441429,11.855034 35.753384,11.892430 45.766121,11.914808 
	C46.631081,11.993479 46.794586,12.027031 46.958092,12.060584 
z"/>
<path fill="#DB4A2E" opacity="1.000000" stroke="none" 
	d="
M48.015079,15.945675 
	C47.984356,15.198187 47.953632,14.450699 47.860992,13.335899 
	C49.260281,10.978186 50.721497,8.987783 52.967865,6.987751 
	C55.186146,6.970498 56.619274,6.962874 58.052402,6.955251 
	C63.372459,11.559258 63.242741,16.685312 57.207611,19.285057 
	C55.795124,19.515020 54.912636,19.854523 54.030148,20.194023 
	C53.251305,19.875231 52.472462,19.556438 51.283836,18.825953 
	C50.270626,17.927532 49.667194,17.440807 48.966034,16.716202 
	C48.583900,16.300772 48.299488,16.123222 48.015079,15.945675 
z"/>
<path fill="#F8F3F1" opacity="1.000000" stroke="none" 
	d="
M54.151642,20.436440 
	C54.912636,19.854523 55.795124,19.515020 56.883217,19.390799 
	C56.677559,20.357218 56.266304,21.108356 55.524380,21.938999 
	C54.886852,21.571951 54.579994,21.125402 54.151642,20.436440 
z"/>
<path fill="#B85745" opacity="1.000000" stroke="none" 
	d="
M57.847973,6.648485 
	C56.619274,6.962874 55.186146,6.970498 53.323418,6.953818 
	C54.477058,6.733583 56.060303,6.537651 57.847973,6.648485 
z"/>
<path fill="#F8F3F1" opacity="1.000000" stroke="none" 
	d="
M55.354969,32.825645 
	C55.122234,32.542545 55.082493,32.106281 55.106018,31.346291 
	C55.295506,31.572536 55.421734,32.122509 55.354969,32.825645 
z"/>
<path fill="#EDECEC" opacity="1.000000" stroke="none" 
	d="
M46.908249,11.884368 
	C46.794586,12.027031 46.631081,11.993479 46.232620,11.873432 
	C46.284573,11.760676 46.571491,11.734414 46.908249,11.884368 
z"/>
<path fill="#FFFFFF" opacity="1.000000" stroke="none" 
	d="
M49.063763,16.954082 
	C49.667194,17.440807 50.270626,17.927532 50.992748,18.687222 
	C50.741116,25.885826 50.251266,32.807766 50.036381,39.738228 
	C49.847488,45.830444 48.293892,47.731350 42.167839,47.957878 
	C37.346825,48.136154 32.485500,48.326393 27.694006,47.911537 
	C22.167559,47.433048 17.625984,49.040970 13.152579,52.854317 
	C12.636543,52.972179 12.226048,52.927910 12.226048,52.927910 
	C12.179721,42.790604 12.183947,32.652687 12.061988,22.516287 
	C12.013741,18.506313 13.871329,16.769928 17.797163,16.800835 
	C27.567345,16.877752 37.338150,16.875505 47.804897,16.952169 
	C48.688644,16.984224 48.876202,16.969152 49.063763,16.954082 
z"/>
<path fill="#D6D6D5" opacity="1.000000" stroke="none" 
	d="
M48.966034,16.716202 
	C48.876202,16.969152 48.688644,16.984224 48.220577,16.959671 
	C47.940063,16.920046 47.989250,16.433964 48.002167,16.189819 
	C48.299488,16.123222 48.583900,16.300772 48.966034,16.716202 
z"/>
<path fill="#EBEBEB" opacity="1.000000" stroke="none" 
	d="
M12.224375,53.130257 
	C12.226048,52.927910 12.636543,52.972179 12.841139,53.001915 
	C12.771390,53.131969 12.497046,53.232285 12.224375,53.130257 
z"/>
</svg>