<svg version="1.1" id="Layer_1" xmlns="http://www.w3.org/2000/svg" xmlns:xlink="http://www.w3.org/1999/xlink" x="0px" y="0px"
	 width="100%" viewBox="0 0 231 122" enable-background="new 0 0 231 122" xml:space="preserve">
<path fill="#FEFEFF" opacity="1.000000" stroke="none" 
	d="
M176.000000,123.000000 
	C117.333336,123.000000 59.166672,123.000000 1.000008,123.000000 
	C1.000005,82.333336 1.000005,41.666679 1.000003,1.000013 
	C77.999992,1.000009 154.999985,1.000009 231.999969,1.000004 
	C231.999985,41.666653 231.999985,82.333305 232.000000,122.999985 
	C213.500000,123.000000 195.000000,123.000000 176.000000,123.000000 
M55.197308,33.261101 
	C47.750469,27.861549 39.809566,26.273718 31.350086,30.602962 
	C22.776131,34.990791 19.075380,42.324066 19.087467,51.792187 
	C19.097513,59.662888 16.663534,66.735977 12.307504,73.319954 
	C8.564247,78.977753 10.061356,81.773865 16.728077,81.821800 
	C32.884613,81.937950 49.042969,81.929718 65.199707,81.829597 
	C72.091431,81.786888 73.520294,79.111519 69.692841,73.142189 
	C65.149345,66.056122 63.107990,58.451077 62.861633,50.059204 
	C62.754078,46.395412 61.026810,42.779175 60.824970,38.982800 
	C62.608078,38.650257 64.552788,38.660828 66.140358,37.913116 
	C69.358612,36.397385 71.204651,33.351112 69.825653,30.144907 
	C68.802483,27.766014 66.146255,24.887180 63.894539,24.577269 
	C61.644253,24.267555 58.663929,26.515902 56.654720,28.354403 
	C55.643742,29.279486 56.076675,31.782557 55.197308,33.261101 
M215.802765,69.019516 
	C219.542358,33.919853 187.870941,7.764458 155.145721,16.012957 
	C131.086838,22.077076 115.022438,46.948811 119.574066,71.402557 
	C124.332161,96.965584 147.769638,114.599609 172.693298,111.368698 
	C195.524704,108.409012 210.779068,93.691513 215.802765,69.019516 
M45.198448,89.881378 
	C41.899406,89.882599 38.582817,89.691818 35.310982,89.990791 
	C34.189495,90.093277 33.180042,91.421822 32.119408,92.190231 
	C33.154915,93.045166 34.134171,94.540596 35.236263,94.637390 
	C38.837658,94.953674 42.500244,94.958580 46.104183,94.659775 
	C47.438137,94.549179 48.674717,93.264145 49.955711,92.514717 
	C48.671944,91.637039 47.388176,90.759361 45.198448,89.881378 
z"/>
<path fill="#0354CD" opacity="1.000000" stroke="none" 
	d="
M215.736298,69.462105 
	C210.779068,93.691513 195.524704,108.409012 172.693298,111.368698 
	C147.769638,114.599609 124.332161,96.965584 119.574066,71.402557 
	C115.022438,46.948811 131.086838,22.077076 155.145721,16.012957 
	C187.870941,7.764458 219.542358,33.919853 215.736298,69.462105 
M164.611755,67.316162 
	C166.855042,71.751617 169.035187,76.221001 171.387039,80.598129 
	C171.958328,81.661423 173.063568,83.160889 173.976532,83.199463 
	C179.652374,83.439262 185.343353,83.320259 192.284515,83.320259 
	C183.858093,66.470879 176.061035,50.879971 167.705582,34.172466 
	C165.972107,37.112110 164.798309,38.831161 163.895187,40.682262 
	C160.388748,47.869324 161.183655,55.430897 161.381500,63.084255 
	C159.826828,61.303219 158.272141,59.522186 156.144470,57.084736 
	C151.331192,66.066292 146.985092,74.176094 141.870209,83.720413 
	C147.864563,83.857704 152.723053,83.878036 157.571625,84.107422 
	C161.811752,84.308022 163.726562,82.175667 163.876266,78.206726 
	C164.017853,74.453201 163.984070,70.693069 164.611755,67.316162 
z"/>
<path fill="#0E0E0E" opacity="1.000000" stroke="none" 
	d="
M60.035099,39.141342 
	C61.026810,42.779175 62.754078,46.395412 62.861633,50.059204 
	C63.107990,58.451077 65.149345,66.056122 69.692841,73.142189 
	C73.520294,79.111519 72.091431,81.786888 65.199707,81.829597 
	C49.042969,81.929718 32.884613,81.937950 16.728077,81.821800 
	C10.061356,81.773865 8.564247,78.977753 12.307504,73.319954 
	C16.663534,66.735977 19.097513,59.662888 19.087467,51.792187 
	C19.075380,42.324066 22.776131,34.990791 31.350086,30.602962 
	C39.809566,26.273718 47.750469,27.861549 55.616684,33.713989 
	C57.369076,35.825035 58.702087,37.483189 60.035099,39.141342 
M64.503128,76.897118 
	C64.686317,76.213799 65.255310,75.269859 64.995750,74.885635 
	C59.763199,67.139908 58.195812,58.477264 57.960831,49.316368 
	C57.731377,40.371002 50.331367,33.319065 41.534561,33.103008 
	C32.543221,32.882179 24.866882,39.841644 24.129635,48.908298 
	C23.873947,52.052757 24.175478,55.340260 23.349230,58.320309 
	C21.612291,64.584961 19.297298,70.689346 17.204559,76.904106 
	C32.406197,76.904106 48.038177,76.904106 64.503128,76.897118 
z"/>
<path fill="#DC4F33" opacity="1.000000" stroke="none" 
	d="
M60.430035,39.062073 
	C58.702087,37.483189 57.369076,35.825035 55.946365,33.869469 
	C56.076675,31.782557 55.643742,29.279486 56.654720,28.354403 
	C58.663929,26.515902 61.644253,24.267555 63.894539,24.577269 
	C66.146255,24.887180 68.802483,27.766014 69.825653,30.144907 
	C71.204651,33.351112 69.358612,36.397385 66.140358,37.913116 
	C64.552788,38.660828 62.608078,38.650257 60.430035,39.062073 
z"/>
<path fill="#161616" opacity="1.000000" stroke="none" 
	d="
M45.651428,89.881531 
	C47.388176,90.759361 48.671944,91.637039 49.955708,92.514725 
	C48.674717,93.264145 47.438137,94.549179 46.104183,94.659775 
	C42.500244,94.958580 38.837658,94.953674 35.236263,94.637390 
	C34.134171,94.540596 33.154915,93.045166 32.119408,92.190231 
	C33.180042,91.421822 34.189495,90.093277 35.310982,89.990791 
	C38.582817,89.691818 41.899406,89.882599 45.651428,89.881531 
z"/>
<path fill="#FBFCFE" opacity="1.000000" stroke="none" 
	d="
M162.112503,62.989941 
	C161.183655,55.430897 160.388748,47.869324 163.895187,40.682262 
	C164.798309,38.831161 165.972107,37.112110 167.705582,34.172466 
	C176.061035,50.879971 183.858093,66.470879 192.284515,83.320259 
	C185.343353,83.320259 179.652374,83.439262 173.976532,83.199463 
	C173.063568,83.160889 171.958328,81.661423 171.387039,80.598129 
	C169.035187,76.221001 166.855042,71.751617 164.307159,67.157906 
	C164.002563,66.999649 164.070847,67.004852 164.065689,66.680031 
	C163.711823,65.879219 163.363113,65.403229 163.006805,64.963509 
	C162.999191,64.999779 163.071686,65.015213 163.140457,64.662323 
	C162.818314,63.850475 162.427414,63.391521 162.038269,62.969711 
	C162.040024,63.006859 162.112503,62.989941 162.112503,62.989941 
z"/>
<path fill="#C9DAF4" opacity="1.000000" stroke="none" 
	d="
M164.014984,66.967743 
	C163.984070,70.693069 164.017853,74.453201 163.876266,78.206726 
	C163.726562,82.175667 161.811752,84.308022 157.571625,84.107422 
	C152.723053,83.878036 147.864563,83.857704 141.870209,83.720413 
	C146.985092,74.176094 151.331192,66.066292 156.144470,57.084736 
	C158.272141,59.522186 159.826828,61.303219 161.747009,63.037098 
	C162.112503,62.989941 162.040024,63.006859 161.882675,63.315636 
	C162.174118,64.088013 162.622894,64.551613 163.071686,65.015213 
	C163.071686,65.015213 162.999191,64.999779 162.863602,65.338013 
	C163.175629,66.119110 163.623230,66.561981 164.070847,67.004852 
	C164.070847,67.004852 164.002563,66.999649 164.014984,66.967743 
z"/>
<path fill="#FCFCFC" opacity="1.000000" stroke="none" 
	d="
M64.086639,76.900612 
	C48.038177,76.904106 32.406197,76.904106 17.204559,76.904106 
	C19.297298,70.689346 21.612291,64.584961 23.349230,58.320309 
	C24.175478,55.340260 23.873947,52.052757 24.129635,48.908298 
	C24.866882,39.841644 32.543221,32.882179 41.534561,33.103008 
	C50.331367,33.319065 57.731377,40.371002 57.960831,49.316368 
	C58.195812,58.477264 59.763199,67.139908 64.995750,74.885635 
	C65.255310,75.269859 64.686317,76.213799 64.086639,76.900612 
z"/>
<path fill="#0354CD" opacity="1.000000" stroke="none" 
	d="
M163.140457,64.662323 
	C162.622894,64.551613 162.174118,64.088013 161.880920,63.278492 
	C162.427414,63.391521 162.818314,63.850475 163.140457,64.662323 
z"/>
<path fill="#0354CD" opacity="1.000000" stroke="none" 
	d="
M164.065689,66.680031 
	C163.623230,66.561981 163.175629,66.119110 162.871216,65.301743 
	C163.363113,65.403229 163.711823,65.879219 164.065689,66.680031 
z"/>
</svg>