<svg version="1.1" id="Layer_1" xmlns="http://www.w3.org/2000/svg" xmlns:xlink="http://www.w3.org/1999/xlink" x="0px" y="0px"
	 width="100%" viewBox="0 0 272 240" enable-background="new 0 0 272 240" xml:space="preserve">
<path fill="#B0B0B0" opacity="1.000000" stroke="none" 
	d="
M214.253403,153.894043 
	C213.121964,157.907867 211.084259,160.888641 208.280518,163.385315 
	C207.410889,164.159698 206.519226,164.946411 205.814423,165.863358 
	C190.815323,185.376999 169.287354,189.470367 146.687408,190.471130 
	C139.016388,190.810837 131.745148,187.401062 124.254944,185.875839 
	C121.488052,185.312424 118.809151,184.353500 115.917274,184.414337 
	C110.822586,184.521530 106.658966,184.419617 103.633934,190.651627 
	C98.952644,200.295731 73.897896,200.980881 67.286911,192.514099 
	C64.538536,188.994217 64.031654,184.835999 64.057259,180.683380 
	C64.153725,165.033600 64.347885,149.382141 64.749603,133.737595 
	C64.915794,127.265450 70.175690,122.061806 76.624428,121.761864 
	C82.276619,121.498978 87.953499,121.588356 93.613853,121.736656 
	C98.086922,121.853859 101.744537,124.000587 103.943481,127.795952 
	C105.742432,130.900909 107.586571,130.806839 110.483215,129.591202 
	C120.121552,125.546196 129.574020,120.621735 140.559006,121.673409 
	C149.555252,122.534683 158.244553,124.896561 166.721695,127.826347 
	C172.419342,129.795532 175.197113,134.961792 177.094681,140.577057 
	C180.835236,139.338425 183.190933,136.896133 185.942841,135.128174 
	C192.927338,130.641052 200.084381,130.131027 207.045685,134.746140 
	C213.717636,139.169418 215.780685,145.738998 214.253403,153.894043 
M119.300987,169.694977 
	C124.835617,169.961548 130.049927,171.787552 135.392166,172.993301 
	C140.720245,174.195877 145.965881,176.468536 151.530823,175.528290 
	C159.386795,174.200958 167.280045,172.843826 174.954926,170.755463 
	C185.705002,167.830292 191.300903,158.121216 199.010010,151.209854 
	C199.924179,150.390289 199.890228,149.021286 198.929077,148.047440 
	C197.711243,146.813522 196.126190,146.768356 194.784256,147.590179 
	C192.094116,149.237671 189.229584,150.787506 186.988541,152.949341 
	C176.396484,163.167099 163.588058,165.423386 149.588196,164.044754 
	C144.344238,163.528366 140.733826,160.536850 140.869736,156.339920 
	C141.007309,152.091553 144.626968,148.973145 149.798584,148.755997 
	C152.457428,148.644363 155.123840,148.724747 157.784988,148.651855 
	C159.841949,148.595520 161.304123,147.654236 161.676483,145.513718 
	C162.034241,143.457169 161.353394,141.721252 159.267166,141.175705 
	C148.773376,138.431458 138.473618,133.526443 127.304886,138.821304 
	C121.751862,141.453873 115.979584,143.633255 110.261688,145.904846 
	C107.418198,147.034485 106.014290,148.860901 106.272636,151.996292 
	C106.422363,153.813446 106.242882,155.655472 106.266808,157.485580 
	C106.452583,171.695175 104.343185,169.457733 119.300987,169.694977 
M89.512833,182.544403 
	C91.157684,182.091125 91.358994,180.835281 91.267166,179.406799 
	C90.453194,166.744751 91.591492,154.101593 91.742744,141.449631 
	C91.802521,136.450485 89.174278,136.251816 85.449066,136.231064 
	C81.683502,136.210098 79.055641,136.492645 79.179611,141.459412 
	C79.445610,152.116516 79.163826,162.786087 79.221687,173.449936 
	C79.276199,183.497543 77.946243,182.741013 89.512833,182.544403 
z"/>
<path fill="#B0B0B0" opacity="1.000000" stroke="none" 
	d="
M128.319427,108.117859 
	C111.211571,102.499329 102.571503,88.119499 105.764908,71.175659 
	C108.552872,56.382992 122.323700,46.033657 138.390747,46.741577 
	C144.736343,47.021172 150.481598,49.189476 155.364548,53.210430 
	C157.568573,55.025368 159.576065,55.155521 162.225449,54.565975 
	C174.559036,51.821495 185.565414,54.409458 193.829300,64.311256 
	C201.958359,74.051514 203.772827,85.296333 198.693451,97.044243 
	C193.599533,108.825760 184.151703,115.033524 171.422287,115.754662 
	C164.109283,116.168953 157.173264,114.306923 151.300247,109.644295 
	C149.052780,107.860023 146.999542,107.090279 144.032608,108.040642 
	C139.026627,109.644173 133.843948,109.308701 128.319427,108.117859 
M179.133453,71.231049 
	C171.181198,66.997803 164.544998,67.543755 158.953888,72.891182 
	C154.272217,77.368820 152.664581,85.011574 155.188370,90.792755 
	C158.036118,97.316032 163.800888,100.952431 170.987091,100.758514 
	C177.335693,100.587189 183.293457,96.091324 185.592896,89.736664 
	C187.966156,83.177963 186.054062,77.261383 179.133453,71.231049 
M120.389580,74.210411 
	C119.360214,85.304581 125.649719,93.681862 135.020416,93.889336 
	C138.458008,93.965446 140.167664,92.634102 139.465607,89.170067 
	C137.965042,81.766319 139.840759,74.937340 143.371338,68.635078 
	C145.616165,64.627953 144.024063,63.272118 140.534897,62.275715 
	C132.007904,59.840664 124.315941,64.118355 120.389580,74.210411 
z"/>
</svg>
