<svg version="1.1" id="Layer_1" xmlns="http://www.w3.org/2000/svg" xmlns:xlink="http://www.w3.org/1999/xlink" x="0px" y="0px"
	 width="100%" viewBox="0 0 112 108" enable-background="new 0 0 112 108" xml:space="preserve">
<path fill="#4A043A" opacity="1.000000" stroke="none" 
	d="
M113.000000,92.000000 
	C113.000000,92.000000 113.000000,92.500000 112.661835,92.865166 
	C109.669540,101.145210 105.132690,107.022392 95.718834,108.045586 
	C70.421997,108.022606 45.599255,108.088272 20.399460,108.138771 
	C10.240972,106.043472 4.392663,98.961334 4.337979,88.534447 
	C4.224460,66.888985 4.201840,45.241829 4.343693,23.596687 
	C4.424394,11.282674 12.470301,3.385609 24.849192,3.330846 
	C47.160858,3.232142 69.473465,3.248487 91.785294,3.326378 
	C102.516174,3.363840 109.088608,8.527606 112.057175,19.400793 
	C111.996742,42.243271 111.982964,64.617111 112.053841,86.990677 
	C112.059135,88.661438 112.670425,90.330269 113.000000,92.000000 
M90.622780,26.345369 
	C87.485939,25.916611 86.013481,27.018059 86.266121,30.438116 
	C86.518021,33.848114 86.321365,37.291245 86.321365,40.848816 
	C84.014076,40.955887 82.367378,40.944004 80.741508,41.122200 
	C70.824303,42.209141 63.593948,49.531830 63.064201,58.970173 
	C62.516666,68.725395 67.417297,76.459885 76.424622,77.680420 
	C82.143509,78.455353 88.194397,77.142815 94.034401,76.324127 
	C95.074913,76.178268 96.560333,73.873344 96.573204,72.553017 
	C96.704399,59.092869 96.572289,45.630161 96.516304,32.168159 
	C96.508934,30.395769 96.515297,28.623322 96.515297,26.597965 
	C94.402519,26.491972 92.942192,26.418711 90.622780,26.345369 
M55.535324,30.337772 
	C52.121197,29.791925 50.042686,31.093184 48.575500,34.361946 
	C46.564404,38.842491 43.985340,43.068108 41.398758,47.868694 
	C38.505814,42.598557 36.011112,37.717381 33.149803,33.061508 
	C32.366112,31.786293 30.575245,30.652411 29.084538,30.396132 
	C26.557465,29.961679 23.901541,30.276724 20.134529,30.276724 
	C23.356281,35.691284 25.582771,40.547024 28.811323,44.605648 
	C34.030746,51.167011 34.039665,56.907719 28.681126,63.427753 
	C25.321379,67.515755 23.062548,72.508553 20.318615,77.080643 
	C28.041069,79.346588 32.837212,77.309448 35.350666,70.116241 
	C36.507145,66.806541 38.638340,63.837410 40.738049,59.954781 
	C43.579361,65.266487 45.873188,69.856972 48.484871,74.258873 
	C49.302803,75.637466 50.859631,77.230476 52.283432,77.461678 
	C55.302383,77.951889 58.456264,77.611183 62.500732,77.611183 
	C58.041782,70.294968 54.244518,63.726273 50.086506,57.394474 
	C48.202152,54.524986 48.004295,52.348854 49.984474,49.383984 
	C53.915569,43.498051 57.396927,37.311741 61.449368,30.612759 
	C59.212078,30.491896 57.788601,30.414995 55.535324,30.337772 
z"/>
<path fill="#FCFBFC" opacity="1.000000" stroke="none" 
	d="
M112.124870,18.932085 
	C109.088608,8.527606 102.516174,3.363840 91.785294,3.326378 
	C69.473465,3.248487 47.160858,3.232142 24.849192,3.330846 
	C12.470301,3.385609 4.424394,11.282674 4.343693,23.596687 
	C4.201840,45.241829 4.224460,66.888985 4.337979,88.534447 
	C4.392663,98.961334 10.240972,106.043472 20.449566,108.351807 
	C20.876726,108.580009 21.000000,109.000000 21.000000,109.000000 
	C14.344708,109.000000 7.689416,109.000000 1.017062,109.000000 
	C1.017062,73.072807 1.017062,37.145603 1.017062,1.109200 
	C38.333130,1.109200 75.666512,1.109200 113.000000,1.109200 
	C113.000000,6.746627 113.000000,12.403605 112.782272,18.499691 
	C112.564552,18.938799 112.124870,18.932085 112.124870,18.932085 
z"/>
<path fill="#FAF7F9" opacity="1.000000" stroke="none" 
	d="
M96.192932,108.134232 
	C105.132690,107.022392 109.669540,101.145210 112.661835,93.115166 
	C113.000000,98.260979 113.000000,103.521957 113.000000,109.000000 
	C107.648293,109.000000 102.294601,109.000000 96.496887,108.778702 
	C96.052872,108.557404 96.192932,108.134232 96.192932,108.134232 
z"/>
<path fill="#77426B" opacity="1.000000" stroke="none" 
	d="
M95.718834,108.045586 
	C96.192932,108.134232 96.052872,108.557404 96.026436,108.778702 
	C71.312439,109.000000 46.624878,109.000000 21.468658,109.000000 
	C21.000000,109.000000 20.876726,108.580009 20.826620,108.366974 
	C45.599255,108.088272 70.421997,108.022606 95.718834,108.045586 
z"/>
<path fill="#BBA1B5" opacity="1.000000" stroke="none" 
	d="
M112.057175,19.400793 
	C112.124870,18.932085 112.564552,18.938799 112.782272,18.969398 
	C113.000000,43.020893 113.000000,67.041786 113.000000,91.531342 
	C112.670425,90.330269 112.059135,88.661438 112.053841,86.990677 
	C111.982964,64.617111 111.996742,42.243271 112.057175,19.400793 
z"/>
<path fill="#F95EF0" opacity="1.000000" stroke="none" 
	d="
M91.052322,26.345409 
	C92.942192,26.418711 94.402519,26.491972 96.515297,26.597965 
	C96.515297,28.623322 96.508934,30.395769 96.516304,32.168159 
	C96.572289,45.630161 96.704399,59.092869 96.573204,72.553017 
	C96.560333,73.873344 95.074913,76.178268 94.034401,76.324127 
	C88.194397,77.142815 82.143509,78.455353 76.424622,77.680420 
	C67.417297,76.459885 62.516666,68.725395 63.064201,58.970173 
	C63.593948,49.531830 70.824303,42.209141 80.741508,41.122200 
	C82.367378,40.944004 84.014076,40.955887 86.321365,40.848816 
	C86.321365,37.291245 86.518021,33.848114 86.266121,30.438116 
	C86.013481,27.018059 87.485939,25.916611 91.052322,26.345409 
M86.329407,61.447731 
	C86.329407,57.666931 86.329407,53.886135 86.329407,50.057976 
	C81.260223,48.922459 77.470253,50.055656 74.918404,53.920403 
	C72.268471,57.933681 72.581657,62.265991 75.184402,66.139839 
	C77.713249,69.903687 81.602638,70.308105 86.329544,69.531494 
	C86.329544,66.987801 86.329544,64.702927 86.329407,61.447731 
z"/>
<path fill="#F75DEE" opacity="1.000000" stroke="none" 
	d="
M55.950222,30.337934 
	C57.788601,30.414995 59.212078,30.491896 61.449368,30.612759 
	C57.396927,37.311741 53.915569,43.498051 49.984474,49.383984 
	C48.004295,52.348854 48.202152,54.524986 50.086506,57.394474 
	C54.244518,63.726273 58.041782,70.294968 62.500732,77.611183 
	C58.456264,77.611183 55.302383,77.951889 52.283432,77.461678 
	C50.859631,77.230476 49.302803,75.637466 48.484871,74.258873 
	C45.873188,69.856972 43.579361,65.266487 40.738049,59.954781 
	C38.638340,63.837410 36.507145,66.806541 35.350666,70.116241 
	C32.837212,77.309448 28.041069,79.346588 20.318615,77.080643 
	C23.062548,72.508553 25.321379,67.515755 28.681126,63.427753 
	C34.039665,56.907719 34.030746,51.167011 28.811323,44.605648 
	C25.582771,40.547024 23.356281,35.691284 20.134529,30.276724 
	C23.901541,30.276724 26.557465,29.961679 29.084538,30.396132 
	C30.575245,30.652411 32.366112,31.786293 33.149803,33.061508 
	C36.011112,37.717381 38.505814,42.598557 41.398758,47.868694 
	C43.985340,43.068108 46.564404,38.842491 48.575500,34.361946 
	C50.042686,31.093184 52.121197,29.791925 55.950222,30.337934 
z"/>
<path fill="#4C043C" opacity="1.000000" stroke="none" 
	d="
M86.329475,61.932892 
	C86.329544,64.702927 86.329544,66.987801 86.329544,69.531494 
	C81.602638,70.308105 77.713249,69.903687 75.184402,66.139839 
	C72.581657,62.265991 72.268471,57.933681 74.918404,53.920403 
	C77.470253,50.055656 81.260223,48.922459 86.329407,50.057976 
	C86.329407,53.886135 86.329407,57.666931 86.329475,61.932892 
z"/>
</svg>